<?xml version="1.0" encoding="UTF-8" standalone="no"?>
<svg xmlns="http://www.w3.org/2000/svg" viewBox="0 0 427.65 427.65" width="427.65" height="427.65">
  <path d="M213.83,0 C95.74,0,0,95.74,0,213.83 C0,331.93,95.74,427.65,213.83,427.65 C331.93,427.65,427.65,331.93,427.65,213.83 C427.65,95.74,331.93,0,213.83,0 Z M311.16,308.4 C307.23,314.92 298.8,317.3 292.28,313.35 C242.21,283.24 179.1,276.39 105.17,293.24 C97.76,295.1 90.37,290.63 88.51,283.22 C86.65,275.81 91.1,268.43 98.52,266.57 C180.15,247.98 250.91,255.95 308.21,289.51 C314.73,293.44 317.09,301.87 311.16,308.4 Z M336.96,250.08 C332.07,258.18 321.44,261.15 313.37,256.24 C256.42,221.56 169.08,211.89 101.53,232.7 C92.47,235.48 82.83,230.44 80.03,221.39 C77.26,212.33 82.28,202.7 91.34,199.91 C168.89,176.04 265.33,187.09 331.82,227.48 C339.91,232.37 342.86,243,336.96,250.08 Z M338.97,189.15 C269.45,149.02 156.57,145.33 91.23,165.5 C80.56,168.79 69.22,162.77 65.92,152.11 C62.62,141.44 68.65,130.11 79.31,126.8 C154.62,103.65 279.73,107.97 359.92,154.71 C369.52,160.42 372.98,173.09 367.27,182.66 C361.55,192.25 348.85,195.73 338.97,189.15 Z" fill="#1DB954"/>
</svg>